HIERARCHY
ROOT Hips
{
	OFFSET 0.000000 83.214638 0.000000
	CHANNELS 6 Xposition Yposition Zposition Xrotation Yrotation Zrotation
	JOINT Pelvis
	{
		OFFSET 0.000000 0.000000 0.000000
		CHANNELS 3 Xrotation Yrotation Zrotation
		JOINT LeftUpLeg
		{
			OFFSET 8.479700 -4.795502 -0.379100
			CHANNELS 3 Xrotation Yrotation Zrotation
			JOINT LeftLeg
			{
				OFFSET 0.024144 -32.555107 0.112900
				CHANNELS 3 Xrotation Yrotation Zrotation
				JOINT LeftFoot
				{
					OFFSET -0.024144 -32.638630 -3.012600
					CHANNELS 3 Xrotation Yrotation Zrotation
					JOINT LeftToeBase
					{
						OFFSET 0.970200 -13.225400 11.864200
						CHANNELS 3 Xrotation Yrotation Zrotation
						End Site
						{
							OFFSET 0.000000 12.319262 0.000000
						}
					}
					JOINT LFootTongue
					{
						OFFSET 1.142400 -1.059800 6.665200
						CHANNELS 3 Xrotation Yrotation Zrotation
						End Site
						{
							OFFSET 0.000000 12.319262 0.000000
						}
					}
				}
				JOINT LeftPantLeg
				{
					OFFSET 0.918482 -16.533964 -2.284700
					CHANNELS 3 Xrotation Yrotation Zrotation
					End Site
					{
						OFFSET 0.350399 24.744368 0.000000
					}
				}
			}
		}
		JOINT RightUpLeg
		{
			OFFSET -8.479700 -4.795502 -0.379100
			CHANNELS 3 Xrotation Yrotation Zrotation
			JOINT RightLeg
			{
				OFFSET -0.023144 -32.555092 0.112900
				CHANNELS 3 Xrotation Yrotation Zrotation
				JOINT RightFoot
				{
					OFFSET 0.023144 -32.638641 -3.012700
					CHANNELS 3 Xrotation Yrotation Zrotation
					JOINT RightToeBase
					{
						OFFSET -0.970200 -13.225400 11.864200
						CHANNELS 3 Xrotation Yrotation Zrotation
						End Site
						{
							OFFSET 0.000000 12.319244 0.000000
						}
					}
					JOINT RFootTongue
					{
						OFFSET -1.142200 -1.059800 6.665200
						CHANNELS 3 Xrotation Yrotation Zrotation
						End Site
						{
							OFFSET 0.000000 12.319243 0.000000
						}
					}
				}
				JOINT RightPantLeg
				{
					OFFSET -0.919482 -16.533978 -2.284800
					CHANNELS 3 Xrotation Yrotation Zrotation
					End Site
					{
						OFFSET -0.350400 24.744419 0.000000
					}
				}
			}
		}
	}
	JOINT Spine
	{
		OFFSET 0.000000 7.722000 1.166200
		CHANNELS 3 Xrotation Yrotation Zrotation
		JOINT Spine1
		{
			OFFSET 0.000000 12.024101 0.248800
			CHANNELS 3 Xrotation Yrotation Zrotation
			JOINT Spine2
			{
				OFFSET 0.000000 11.502998 -0.491200
				CHANNELS 3 Xrotation Yrotation Zrotation
				JOINT Neck
				{
					OFFSET 0.000000 18.430702 -3.123100
					CHANNELS 3 Xrotation Yrotation Zrotation
					JOINT Head
					{
						OFFSET 0.000000 9.051102 1.034000
						CHANNELS 3 Xrotation Yrotation Zrotation
						JOINT HairB
						{
							OFFSET 0.208400 24.786102 24.822300
							CHANNELS 3 Xrotation Yrotation Zrotation
							End Site
							{
								OFFSET 0.000000 32.263779 0.000000
							}
						}
						JOINT HairA
						{
							OFFSET -7.081100 24.428299 23.196600
							CHANNELS 3 Xrotation Yrotation Zrotation
							End Site
							{
								OFFSET 0.000000 32.263779 0.000000
							}
						}
						JOINT Hat
						{
							OFFSET 16.728800 15.048294 -15.439601
							CHANNELS 3 Xrotation Yrotation Zrotation
							End Site
							{
								OFFSET 0.000000 32.263779 0.000000
							}
						}
					}
				}
				JOINT LeftShoulder
				{
					OFFSET 6.197800 13.665199 -4.064700
					CHANNELS 3 Xrotation Yrotation Zrotation
					JOINT LeftArm
					{
						OFFSET 7.778100 -0.187103 -1.709300
						CHANNELS 3 Xrotation Yrotation Zrotation
						JOINT LeftForeArm
						{
							OFFSET 22.049376 0.000000 0.000000
							CHANNELS 3 Xrotation Yrotation Zrotation
							JOINT LeftHand
							{
								OFFSET 23.009392 0.000000 0.000000
								CHANNELS 3 Xrotation Yrotation Zrotation
								JOINT LeftHandThumb1
								{
									OFFSET 3.507191 -2.063065 3.133727
									CHANNELS 3 Xrotation Yrotation Zrotation
									JOINT LeftHandThumb2
									{
										OFFSET 3.101337 -1.790558 1.790558
										CHANNELS 3 Xrotation Yrotation Zrotation
										JOINT LeftHandThumb3
										{
											OFFSET 3.058640 -1.765907 1.765906
											CHANNELS 3 Xrotation Yrotation Zrotation
											End Site
											{
												OFFSET -0.415260 3.926476 -0.049563
											}
										}
									}
								}
								JOINT LeftHandIndex1
								{
									OFFSET 11.334419 -0.901459 3.706815
									CHANNELS 3 Xrotation Yrotation Zrotation
									JOINT LeftHandIndex2
									{
										OFFSET 3.283112 0.000000 0.000000
										CHANNELS 3 Xrotation Yrotation Zrotation
										JOINT LeftHandIndex3
										{
											OFFSET 3.323853 0.000000 0.000000
											CHANNELS 3 Xrotation Yrotation Zrotation
											End Site
											{
												OFFSET -1.135597 3.097809 0.402452
											}
										}
									}
								}
								JOINT LeftHandMiddle1
								{
									OFFSET 11.335861 0.000000 0.000000
									CHANNELS 3 Xrotation Yrotation Zrotation
									JOINT LeftHandMiddle2
									{
										OFFSET 3.410492 0.000000 0.000000
										CHANNELS 3 Xrotation Yrotation Zrotation
										JOINT LeftHandMiddle3
										{
											OFFSET 3.312172 0.000000 0.000000
											CHANNELS 3 Xrotation Yrotation Zrotation
											End Site
											{
												OFFSET -1.150200 3.080154 0.400270
											}
										}
									}
								}
								JOINT LeftHandRing1
								{
									OFFSET 11.514786 -0.013176 -3.003090
									CHANNELS 3 Xrotation Yrotation Zrotation
									JOINT LeftHandRing2
									{
										OFFSET 3.053307 0.000000 0.000000
										CHANNELS 3 Xrotation Yrotation Zrotation
										JOINT LeftHandRing3
										{
											OFFSET 3.295807 0.000000 0.000000
											CHANNELS 3 Xrotation Yrotation Zrotation
											End Site
											{
												OFFSET -1.281006 3.013344 0.375733
											}
										}
									}
								}
								JOINT LeftHandPinky1
								{
									OFFSET 10.518692 -0.960396 -5.730441
									CHANNELS 3 Xrotation Yrotation Zrotation
									JOINT LeftHandPinky2
									{
										OFFSET 2.861649 0.000000 0.000000
										CHANNELS 3 Xrotation Yrotation Zrotation
										JOINT LeftHandPinky3
										{
											OFFSET 2.863380 0.000000 0.000000
											CHANNELS 3 Xrotation Yrotation Zrotation
											End Site
											{
												OFFSET -0.843597 2.711159 0.369971
											}
										}
									}
								}
							}
							JOINT LSleeve
							{
								OFFSET 6.676277 -0.344902 -1.011730
								CHANNELS 3 Xrotation Yrotation Zrotation
								End Site
								{
									OFFSET 0.000000 14.885353 0.000000
								}
							}
						}
					}
				}
				JOINT RightShoulder
				{
					OFFSET -6.197800 13.665199 -4.064700
					CHANNELS 3 Xrotation Yrotation Zrotation
					JOINT RightArm
					{
						OFFSET -7.778100 -0.187103 -1.709300
						CHANNELS 3 Xrotation Yrotation Zrotation
						JOINT RightForeArm
						{
							OFFSET -22.049376 0.000000 0.000000
							CHANNELS 3 Xrotation Yrotation Zrotation
							JOINT RightHand
							{
								OFFSET -23.009392 0.000000 0.000000
								CHANNELS 3 Xrotation Yrotation Zrotation
								JOINT RightHandThumb1
								{
									OFFSET -3.507191 -2.063065 3.133727
									CHANNELS 3 Xrotation Yrotation Zrotation
									JOINT RightHandThumb2
									{
										OFFSET -3.101337 -1.790558 1.790558
										CHANNELS 3 Xrotation Yrotation Zrotation
										JOINT RightHandThumb3
										{
											OFFSET -3.058640 -1.765907 1.765906
											CHANNELS 3 Xrotation Yrotation Zrotation
											End Site
											{
												OFFSET 0.415260 3.926476 -0.049563
											}
										}
									}
								}
								JOINT RightHandIndex1
								{
									OFFSET -11.334419 -0.901459 3.706815
									CHANNELS 3 Xrotation Yrotation Zrotation
									JOINT RightHandIndex2
									{
										OFFSET -3.283112 0.000000 0.000000
										CHANNELS 3 Xrotation Yrotation Zrotation
										JOINT RightHandIndex3
										{
											OFFSET -3.323853 0.000000 0.000000
											CHANNELS 3 Xrotation Yrotation Zrotation
											End Site
											{
												OFFSET 1.135597 3.097809 0.402452
											}
										}
									}
								}
								JOINT RightHandMiddle1
								{
									OFFSET -11.335861 0.000000 0.000000
									CHANNELS 3 Xrotation Yrotation Zrotation
									JOINT RightHandMiddle2
									{
										OFFSET -3.410492 0.000000 0.000000
										CHANNELS 3 Xrotation Yrotation Zrotation
										JOINT RightHandMiddle3
										{
											OFFSET -3.312172 0.000000 0.000000
											CHANNELS 3 Xrotation Yrotation Zrotation
											End Site
											{
												OFFSET 1.150200 3.080154 0.400270
											}
										}
									}
								}
								JOINT RightHandRing1
								{
									OFFSET -11.514786 -0.013176 -3.003090
									CHANNELS 3 Xrotation Yrotation Zrotation
									JOINT RightHandRing2
									{
										OFFSET -3.053307 0.000000 0.000000
										CHANNELS 3 Xrotation Yrotation Zrotation
										JOINT RightHandRing3
										{
											OFFSET -3.295807 0.000000 0.000000
											CHANNELS 3 Xrotation Yrotation Zrotation
											End Site
											{
												OFFSET 1.281006 3.013344 0.375733
											}
										}
									}
								}
								JOINT RightHandPinky1
								{
									OFFSET -10.518692 -0.960396 -5.730441
									CHANNELS 3 Xrotation Yrotation Zrotation
									JOINT RightHandPinky2
									{
										OFFSET -2.861649 0.000000 0.000000
										CHANNELS 3 Xrotation Yrotation Zrotation
										JOINT RightHandPinky3
										{
											OFFSET -2.863380 0.000000 0.000000
											CHANNELS 3 Xrotation Yrotation Zrotation
											End Site
											{
												OFFSET 0.843597 2.711159 0.369971
											}
										}
									}
								}
							}
							JOINT RSleeve
							{
								OFFSET -6.676277 -0.344902 -1.011730
								CHANNELS 3 Xrotation Yrotation Zrotation
								End Site
								{
									OFFSET 0.000000 14.885353 0.000000
								}
							}
						}
					}
				}
				JOINT Backpack
				{
					OFFSET 0.000000 -2.471497 36.677502
					CHANNELS 3 Xrotation Yrotation Zrotation
					End Site
					{
						OFFSET 0.000000 20.427315 0.000000
					}
				}
				JOINT Hood
				{
					OFFSET 0.000000 18.754097 -10.431000
					CHANNELS 3 Xrotation Yrotation Zrotation
					JOINT Hood1
					{
						OFFSET 0.000000 -5.011002 -7.685901
						CHANNELS 3 Xrotation Yrotation Zrotation
						End Site
						{
							OFFSET 0.000000 9.175140 0.000000
						}
					}
				}
				JOINT LHoodieString
				{
					OFFSET 5.250500 16.397697 3.089900
					CHANNELS 3 Xrotation Yrotation Zrotation
					JOINT LHoodieString1
					{
						OFFSET 0.257700 -6.364304 3.694600
						CHANNELS 3 Xrotation Yrotation Zrotation
						JOINT LHoodieString2
						{
							OFFSET 0.000000 -9.643799 2.679100
							CHANNELS 3 Xrotation Yrotation Zrotation
							End Site
							{
								OFFSET 0.000000 10.009018 0.000000
							}
						}
					}
				}
				JOINT RHoodieString
				{
					OFFSET -5.250500 16.397697 3.089900
					CHANNELS 3 Xrotation Yrotation Zrotation
					JOINT RHoodieString1
					{
						OFFSET -0.257700 -6.364304 3.694600
						CHANNELS 3 Xrotation Yrotation Zrotation
						JOINT RHoodieString2
						{
							OFFSET 0.000000 -9.643799 2.679100
							CHANNELS 3 Xrotation Yrotation Zrotation
							End Site
							{
								OFFSET 0.000000 10.009018 0.000000
							}
						}
					}
				}
			}
			JOINT LBackpack_Strap
			{
				OFFSET 15.223200 -7.719803 -6.610900
				CHANNELS 3 Xrotation Yrotation Zrotation
				End Site
				{
					OFFSET 0.000000 16.040596 0.000000
				}
			}
			JOINT RBackpack_Strap
			{
				OFFSET -15.223000 -7.719803 -6.610900
				CHANNELS 3 Xrotation Yrotation Zrotation
				End Site
				{
					OFFSET 0.000000 16.040596 0.000000
				}
			}
		}
	}
	JOINT BoyFacialAnim_Joint
	{
		OFFSET 1.000000 -82.208099 -1.550900
		CHANNELS 3 Xrotation Yrotation Zrotation
		End Site
		{
			OFFSET 0.000000 30.012791 0.000000
		}
	}
}
MOTION
Frames: 4
Frame Time: 0.033333
-0.059300 83.223488 0.222271 6.373080 -6.447969 0.010891 -0.000000 -0.000001 0.000000 -12.244967 10.823838 2.158499 5.146295 0.007023 -0.165670 0.546901 6.104357 -0.183963 -0.000000 -0.000001 0.000000 -0.000000 -0.000001 0.000000 0.000000 0.000000 -0.000000 -9.624034 0.525115 1.373842 1.228047 0.008563 0.055436 2.091193 2.820773 -0.693986 -0.000000 0.000000 -0.000000 -0.000000 0.000000 -0.000000 -0.000000 0.000000 0.000000 -0.116483 0.610883 0.558920 -0.237324 1.209376 1.020381 -0.237323 1.209374 1.020381 -5.453601 -0.000307 -0.003257 2.793078 2.457813 -2.041331 0.000000 -0.000000 -0.000000 0.000000 -0.000000 -0.000000 0.000000 -0.000000 -0.000000 -1.040628 0.066381 -7.313138 7.335310 -32.056793 -69.656591 0.187029 -19.283453 -0.010487 -20.720680 9.880096 7.493321 -3.585685 6.501864 9.429879 2.607182 6.629811 1.555748 -0.000001 0.000000 0.000000 0.018217 -0.626964 -18.273860 0.140769 0.905692 -26.473730 -0.000001 -0.000000 -0.000004 -0.395182 -0.197378 -22.733926 -0.317515 -1.177660 -20.974676 -0.000001 -0.000000 0.000000 -2.603428 2.237690 -30.763865 -0.558395 -2.799650 -27.779822 0.000001 0.000001 -0.000002 -3.206987 3.773965 -25.957137 -1.466424 -7.041398 -38.543618 -0.000000 0.000001 -0.000002 0.000002 0.000001 0.000000 -1.310972 0.743199 9.275662 11.989212 31.139871 62.510383 0.166197 19.893792 0.012024 -1.874909 -6.080877 -2.853782 -4.933602 -3.839409 -10.210314 2.321134 -6.714506 -2.170917 -0.000001 0.000001 -0.000002 -0.707346 -1.817312 16.398818 0.236662 -1.390805 24.642421 -0.000001 -0.000000 0.000004 -1.004775 -1.535089 26.677189 -0.334961 0.990835 24.831870 0.000007 -0.000000 -0.000000 -1.008052 -2.153161 34.767780 -0.909676 3.719350 31.537603 -0.000005 0.000003 0.000003 -0.351657 -5.096467 35.329498 -3.150353 10.093670 46.957028 0.000000 0.000002 -0.000001 0.000003 -0.000001 -0.000000 0.000001 0.000000 0.000000 0.000001 0.000000 0.000000 0.000001 0.000000 0.000000 0.000001 0.000000 0.000000 0.000001 0.000000 0.000000 0.000001 0.000000 -0.000000 0.000001 0.000000 0.000000 0.000001 0.000000 0.000000 0.000001 0.000000 -0.000000 -0.000000 0.000000 0.000000 -0.000000 0.000000 0.000000 -0.000000 -0.000001 0.000000 
-0.079794 83.225029 0.288569 6.335666 -6.438878 0.015328 0.000000 0.000000 -0.000000 -12.122754 10.803823 2.154947 5.107065 0.007582 -0.164019 0.507811 6.125276 -0.209807 0.000000 0.000000 0.000000 0.000000 0.000000 0.000000 0.000000 0.000001 0.000000 -9.529609 0.560677 1.376291 1.238852 0.009027 0.056210 2.030145 2.779253 -0.705816 -0.000000 0.000000 -0.000000 -0.000000 0.000000 -0.000000 0.000000 0.000000 -0.000000 -0.119386 0.607967 0.556415 -0.243111 1.203901 1.017180 -0.243112 1.203902 1.017180 -5.016635 -0.106655 0.044675 2.516747 1.855908 -1.773443 -0.000000 0.000000 -0.000000 -0.000000 0.000000 -0.000000 -0.000000 0.000000 -0.000000 -1.035528 0.049343 -7.380553 7.481317 -31.994826 -69.528785 0.186904 -19.326237 -0.010592 -20.764900 9.862169 7.521517 -3.587982 6.498102 9.426761 2.615514 6.642838 1.551911 0.000000 0.000000 0.000003 0.021520 -0.623247 -18.243580 0.141529 0.906336 -26.518915 -0.000003 -0.000000 -0.000005 -0.377624 -0.166327 -22.733108 -0.317780 -1.178667 -20.987930 0.000003 -0.000000 -0.000003 -2.609368 2.228580 -30.769118 -0.558744 -2.800183 -27.786999 0.000002 0.000000 0.000001 -3.205338 3.778354 -25.963275 -1.466222 -7.041253 -38.541938 -0.000000 0.000001 -0.000000 0.000002 -0.000000 0.000001 -1.312451 0.726516 9.244006 11.839967 31.063864 62.557846 0.166506 19.657677 0.011530 -1.725230 -5.868719 -2.704588 -4.933611 -3.839406 -10.210307 2.321147 -6.714511 -2.170919 -0.000003 0.000000 -0.000004 -0.699486 -1.830063 16.309529 0.236795 -1.390968 24.647142 0.000005 0.000001 0.000002 -1.033328 -1.488296 26.640258 -0.330538 0.976324 24.574433 0.000004 -0.000002 -0.000004 -1.027189 -2.113865 34.734790 -0.899790 3.704912 31.384617 0.000003 -0.000001 0.000004 -0.686356 -4.433207 36.079487 -3.153283 10.095574 46.973714 0.000001 0.000001 0.000000 0.000002 0.000001 -0.000002 -0.000001 -0.000000 0.000000 -0.000001 -0.000000 0.000000 -0.000001 -0.000000 0.000000 -0.000001 -0.000000 0.000000 -0.000001 -0.000000 -0.000000 -0.000000 0.000000 -0.000000 -0.000001 -0.000000 0.000000 -0.000001 -0.000000 -0.000000 -0.000000 0.000000 -0.000000 -0.000000 0.000001 -0.000000 -0.000000 0.000001 -0.000000 0.000000 0.000000 -0.000000 
-0.100035 83.226189 0.348473 6.318342 -6.399920 0.029845 -0.000000 -0.000000 0.000000 -12.009695 10.734972 2.131143 5.031270 0.008040 -0.160862 0.497934 6.182444 -0.234585 -0.000000 -0.000001 0.000000 -0.000000 -0.000001 0.000000 -0.000000 0.000000 0.000000 -9.507092 0.502589 1.362157 1.353217 0.009435 0.061525 1.908881 2.801180 -0.720802 0.000000 -0.000000 -0.000000 0.000000 -0.000000 -0.000000 0.000000 0.000000 -0.000000 -0.123121 0.600222 0.549952 -0.250532 1.189012 1.008745 -0.250534 1.189014 1.008744 -4.580841 -0.204996 0.106721 2.275971 1.312608 -1.525287 -0.000000 0.000000 0.000000 -0.000000 0.000000 0.000000 -0.000000 0.000000 0.000000 -1.030461 0.032186 -7.446941 7.627531 -31.956860 -69.353666 0.185669 -19.330245 -0.010712 -20.710308 9.839454 7.362065 -3.595195 6.486394 9.415914 2.613221 6.639256 1.552964 0.000001 -0.000001 0.000000 0.022952 -0.622148 -18.215771 0.140687 0.905611 -26.468033 0.000001 0.000001 0.000002 -0.374880 -0.160134 -22.757905 -0.317811 -1.178714 -20.988350 -0.000001 -0.000001 -0.000005 -2.611944 2.224549 -30.762288 -0.558275 -2.799479 -27.777601 0.000002 -0.000000 -0.000002 -3.199255 3.795022 -25.967030 -1.465960 -7.041062 -38.539718 -0.000000 0.000001 0.000002 -0.000001 0.000001 -0.000001 -1.314535 0.692653 9.185643 11.572894 30.982148 62.686766 0.166622 19.311600 0.010836 -1.528042 -5.603153 -2.522353 -4.933612 -3.839407 -10.210306 2.321140 -6.714510 -2.170905 -0.000001 -0.000000 -0.000001 -0.697968 -1.832978 16.259786 0.236784 -1.390966 24.647183 -0.000003 -0.000000 0.000002 -1.037740 -1.481257 26.658934 -0.325475 0.959424 24.274936 0.000003 0.000000 -0.000000 -1.041589 -2.084450 34.741942 -0.892911 3.694857 31.278260 -0.000003 -0.000002 0.000002 -1.037865 -3.675429 36.940576 -3.133951 10.082921 46.863475 0.000001 0.000002 -0.000001 0.000002 0.000000 -0.000000 0.000000 0.000001 0.000000 0.000000 0.000001 0.000000 0.000000 0.000001 0.000000 0.000000 0.000001 0.000000 0.000000 0.000001 -0.000000 0.000000 0.000000 -0.000000 0.000000 0.000001 0.000000 0.000000 0.000001 -0.000000 0.000000 0.000000 -0.000000 -0.000000 0.000000 -0.000000 -0.000000 0.000000 -0.000000 -0.000000 -0.000000 0.000000 
-0.124551 83.226318 0.405311 6.307624 -6.340127 0.038812 -0.000000 0.000000 0.000000 -11.926241 10.664447 2.119008 4.985420 0.008445 -0.158760 0.479943 6.226963 -0.261676 -0.000000 0.000000 0.000000 -0.000000 0.000000 -0.000000 0.000000 -0.000001 0.000000 -9.480363 0.403879 1.355363 1.447563 0.009934 0.065714 1.800401 2.848544 -0.740547 0.000000 -0.000000 0.000000 0.000000 -0.000000 0.000000 0.000000 0.000000 -0.000000 -0.128437 0.590028 0.541913 -0.261056 1.169092 0.996160 -0.261056 1.169090 0.996160 -4.127310 -0.295671 0.193632 2.092564 0.839229 -1.302240 -0.000000 0.000000 -0.000000 -0.000000 0.000000 -0.000000 -0.000000 0.000000 -0.000000 -1.029928 0.032290 -7.451650 7.725068 -31.884955 -69.258480 0.185566 -19.334876 -0.010830 -20.560966 9.823179 7.156905 -3.597671 6.481415 9.435305 2.605106 6.626571 1.556691 -0.000001 -0.000001 0.000001 0.024504 -0.621301 -18.175905 0.139892 0.904947 -26.419597 -0.000003 0.000000 -0.000005 -0.372704 -0.157084 -22.743162 -0.317576 -1.177870 -20.977545 0.000003 -0.000000 -0.000001 -2.616896 2.216527 -30.729731 -0.557864 -2.798850 -27.769242 -0.000001 0.000000 -0.000002 -3.199377 3.795011 -25.947262 -1.465608 -7.040811 -38.536931 -0.000001 0.000000 0.000001 0.000002 -0.000001 0.000001 -1.316338 0.666307 9.139247 11.309484 30.904885 62.798842 0.167422 18.953331 0.010236 -1.348925 -5.307377 -2.268764 -4.933616 -3.839406 -10.210295 2.321149 -6.714512 -2.170928 0.000001 0.000001 -0.000003 -0.712191 -1.814896 16.038237 0.237054 -1.391340 24.657973 -0.000000 -0.000000 0.000002 -1.099948 -1.379974 26.664046 -0.318724 0.936343 23.866438 0.000003 -0.000003 -0.000006 -1.067145 -2.031803 34.700595 -0.882326 3.679278 31.113759 -0.000000 0.000001 0.000004 -1.377431 -2.935025 37.801436 -3.133924 10.082916 46.863383 0.000002 0.000001 -0.000001 0.000003 -0.000001 0.000001 0.000000 0.000000 -0.000000 0.000000 0.000000 -0.000000 0.000000 0.000000 -0.000000 0.000000 0.000000 -0.000000 0.000000 0.000000 -0.000000 0.000000 0.000000 -0.000000 0.000000 0.000000 -0.000000 0.000000 0.000000 -0.000000 0.000000 0.000000 -0.000000 -0.000000 0.000000 -0.000000 -0.000000 0.000000 -0.000000 -0.000000 0.000000 0.000000 
